<svg width="57" height="57" viewBox="0 0 57 57" fill="none" xmlns="http://www.w3.org/2000/svg">
<path d="M28.5 55C43.1355 55 55 43.1355 55 28.5C55 13.8645 43.1355 2 28.5 2C13.8645 2 2 13.8645 2 28.5C2 43.1355 13.8645 55 28.5 55Z" stroke="#39B54A" stroke-width="3" stroke-linecap="round" stroke-linejoin="round"/>
<path d="M28.5 31.15C32.8907 31.15 36.45 27.5907 36.45 23.2C36.45 18.8093 32.8907 15.25 28.5 15.25C24.1094 15.25 20.55 18.8093 20.55 23.2C20.55 27.5907 24.1094 31.15 28.5 31.15Z" stroke="#39B54A" stroke-width="3" stroke-linecap="round" stroke-linejoin="round"/>
<path d="M15.25 51.4543V47.05C15.25 45.6444 15.8084 44.2963 16.8023 43.3023C17.7963 42.3084 19.1444 41.75 20.55 41.75H36.45C37.8556 41.75 39.2037 42.3084 40.1977 43.3023C41.1916 44.2963 41.75 45.6444 41.75 47.05V51.4543" stroke="#39B54A" stroke-width="3" stroke-linecap="round" stroke-linejoin="round"/>
</svg>
