<svg width="38" height="39" viewBox="0 0 38 39" fill="none" xmlns="http://www.w3.org/2000/svg">
<path d="M19.0191 26.9994C19.8904 26.9994 20.5967 26.2931 20.5967 25.4218C20.5967 24.5505 19.8904 23.8442 19.0191 23.8442C18.1478 23.8442 17.4415 24.5505 17.4415 25.4218C17.4415 26.2931 18.1478 26.9994 19.0191 26.9994Z" stroke="black" stroke-width="2.31807" stroke-linecap="round" stroke-linejoin="round"/>
<path d="M30.0622 15.9564H7.97619C6.23365 15.9564 4.82104 17.369 4.82104 19.1115V31.7321C4.82104 33.4746 6.23365 34.8872 7.97619 34.8872H30.0622C31.8047 34.8872 33.2173 33.4746 33.2173 31.7321V19.1115C33.2173 17.369 31.8047 15.9564 30.0622 15.9564Z" stroke="black" stroke-width="2.31807" stroke-linecap="round" stroke-linejoin="round"/>
<path d="M11.1314 15.9564V11.2236C11.1314 9.13166 11.9624 7.12535 13.4417 5.64609C14.921 4.16683 16.9273 3.33578 19.0193 3.33578C21.1113 3.33578 23.1176 4.16683 24.5968 5.64609C26.0761 7.12535 26.9071 9.13166 26.9071 11.2236V15.9564" stroke="black" stroke-width="2.31807" stroke-linecap="round" stroke-linejoin="round"/>
</svg>
