<svg width="99" height="99" viewBox="0 0 99 99" fill="none" xmlns="http://www.w3.org/2000/svg">
<path d="M49.5 98C76.2858 98 98 76.2858 98 49.5C98 22.7142 76.2858 1 49.5 1C22.7142 1 1 22.7142 1 49.5C1 76.2858 22.7142 98 49.5 98Z" stroke="black" stroke-opacity="0.8" stroke-width="1.14793" stroke-linecap="round" stroke-linejoin="round"/>
<path d="M49.5 54.35C57.5357 54.35 64.0499 47.8357 64.0499 39.8C64.0499 31.7643 57.5357 25.25 49.5 25.25C41.4642 25.25 34.95 31.7643 34.95 39.8C34.95 47.8357 41.4642 54.35 49.5 54.35Z" stroke="black" stroke-opacity="0.8" stroke-width="1.14793" stroke-linecap="round" stroke-linejoin="round"/>
<path d="M25.25 91.5107V83.45C25.25 80.8774 26.272 78.4102 28.0911 76.5911C29.9102 74.772 32.3774 73.75 34.95 73.75H64.05C66.6226 73.75 69.0898 74.772 70.9089 76.5911C72.728 78.4102 73.75 80.8774 73.75 83.45V91.5107" stroke="black" stroke-opacity="0.8" stroke-width="1.14793" stroke-linecap="round" stroke-linejoin="round"/>
</svg>
